AmstelvarA2-Italic_XLCR114.ufo
<glyph name="quotesingle" format="2">
  <advance width="443"/>
  <unicode hex="0027"/>
  <outline>
    <contour>
      <point x="204" y="964" type="line"/>
      <point x="208" y="1413" type="line" smooth="yes"/>
      <point x="208" y="1462"/>
      <point x="285" y="1558"/>
      <point x="348" y="1558" type="qcurve" smooth="yes"/>
      <point x="407" y="1558"/>
      <point x="465" y="1458"/>
      <point x="446" y="1413" type="qcurve" smooth="yes"/>
      <point x="258" y="964" type="line"/>
    </contour>
  </outline>
</glyph>
<glyph name="six" format="2">
  <advance width="1016"/>
  <unicode hex="0036"/>
  <outline>
    <contour>
      <point x="-3" y="471" type="qcurve" smooth="yes"/>
      <point x="-3" y="806"/>
      <point x="510" y="1408"/>
      <point x="931" y="1551" type="qcurve"/>
      <point x="969" y="1452" type="line"/>
      <point x="669" y="1353"/>
      <point x="172" y="829"/>
      <point x="178" y="446" type="qcurve" smooth="yes"/>
      <point x="181" y="286"/>
      <point x="314" y="84"/>
      <point x="477" y="84" type="qcurve" smooth="yes"/>
      <point x="619" y="84"/>
      <point x="796" y="305"/>
      <point x="788" y="520" type="qcurve" smooth="yes"/>
      <point x="784" y="634"/>
      <point x="671" y="773"/>
      <point x="568" y="773" type="qcurve" smooth="yes"/>
      <point x="515" y="773"/>
      <point x="417" y="742"/>
      <point x="377" y="715" type="qcurve"/>
      <point x="360" y="783" type="line"/>
      <point x="397" y="821"/>
      <point x="522" y="886"/>
      <point x="609" y="886" type="qcurve" smooth="yes"/>
      <point x="775" y="886"/>
      <point x="977" y="678"/>
      <point x="977" y="519" type="qcurve" smooth="yes"/>
      <point x="977" y="293"/>
      <point x="670" y="-27"/>
      <point x="435" y="-27" type="qcurve" smooth="yes"/>
      <point x="209" y="-27"/>
      <point x="-3" y="256"/>
    </contour>
  </outline>
</glyph>
<glyph name="K" format="2">
  <advance width="1012"/>
  <unicode hex="004B"/>
  <anchor x="457.0" y="0" name="bottom"/>
  <anchor x="746.0" y="1500" name="top"/>
  <anchor x="1051" y="100" name="kai_tail"/>
  <outline>
    <contour>
      <point x="-216" y="0" type="line"/>
      <point x="-207" y="100" type="line"/>
      <point x="-11" y="125" type="line"/>
      <point x="112" y="754" type="line"/>
      <point x="226" y="1362" type="line"/>
      <point x="33" y="1386" type="line"/>
      <point x="46" y="1500" type="line"/>
      <point x="588" y="1500" type="line"/>
      <point x="575" y="1386" type="line"/>
      <point x="393" y="1362" type="line"/>
      <point x="272" y="754" type="line"/>
      <point x="161" y="124" type="line"/>
      <point x="345" y="100" type="line"/>
      <point x="336" y="0" type="line"/>
    </contour>
    <contour>
      <point x="153" y="540" type="line"/>
      <point x="181" y="693" type="line"/>
      <point x="875" y="1348" type="line"/>
      <point x="771" y="1386" type="line"/>
      <point x="784" y="1500" type="line"/>
      <point x="1204" y="1500" type="line"/>
      <point x="1191" y="1386" type="line"/>
      <point x="1030" y="1348" type="line"/>
    </contour>
    <contour>
      <point x="439" y="874" type="line"/>
      <point x="567" y="993" type="line"/>
      <point x="897" y="125" type="line"/>
      <point x="1051" y="100" type="line"/>
      <point x="1042" y="0" type="line"/>
      <point x="575" y="0" type="line"/>
      <point x="584" y="100" type="line"/>
      <point x="725" y="124" type="line"/>
    </contour>
  </outline>
</glyph>
<glyph name="M" format="2">
  <advance width="1602"/>
  <unicode hex="004D"/>
  <anchor x="623.0" y="0" name="bottom"/>
  <anchor x="903.0" y="1500" name="top"/>
  <outline>
    <contour>
      <point x="-216" y="0" type="line"/>
      <point x="-207" y="100" type="line"/>
      <point x="-16" y="115" type="line"/>
      <point x="107" y="754" type="line"/>
      <point x="221" y="1372" type="line"/>
      <point x="38" y="1386" type="line"/>
      <point x="51" y="1500" type="line"/>
      <point x="471" y="1500" type="line"/>
      <point x="590" y="786" type="line"/>
      <point x="670" y="327" type="line"/>
      <point x="686" y="213" type="line"/>
      <point x="696" y="213" type="line"/>
      <point x="755" y="327" type="line"/>
      <point x="1027" y="820" type="line"/>
      <point x="1403" y="1500" type="line"/>
      <point x="1824" y="1500" type="line"/>
      <point x="1803" y="1386" type="line"/>
      <point x="1616" y="1372" type="line"/>
      <point x="1498" y="754" type="line"/>
      <point x="1379" y="115" type="line"/>
      <point x="1571" y="100" type="line"/>
      <point x="1562" y="0" type="line"/>
      <point x="1003" y="0" type="line"/>
      <point x="1012" y="100" type="line"/>
      <point x="1215" y="115" type="line"/>
      <point x="1338" y="754" type="line"/>
      <point x="1435" y="1244" type="line"/>
      <point x="1461" y="1363" type="line"/>
      <point x="1452" y="1365" type="line"/>
      <point x="1394" y="1258" type="line"/>
      <point x="1112" y="758" type="line"/>
      <point x="680" y="-8" type="line"/>
      <point x="569" y="-8" type="line"/>
      <point x="443" y="750" type="line"/>
      <point x="354" y="1249" type="line"/>
      <point x="340" y="1357" type="line"/>
      <point x="329" y="1355" type="line"/>
      <point x="311" y="1235" type="line"/>
      <point x="215" y="754" type="line"/>
      <point x="96" y="115" type="line"/>
      <point x="292" y="100" type="line"/>
      <point x="273" y="0" type="line"/>
    </contour>
  </outline>
</glyph>
<glyph name="Q" format="2">
  <advance width="1407"/>
  <unicode hex="0051"/>
  <anchor x="790.6695652173913" y="0" name="bottom"/>
  <anchor x="790.6695652173913" y="1500" name="top"/>
  <outline>
    <contour>
      <point x="61.66956521739131" y="867" type="qcurve" smooth="yes"/>
      <point x="146.66956521739132" y="1193"/>
      <point x="647.6695652173913" y="1562"/>
      <point x="920.6695652173913" y="1519" type="qcurve" smooth="yes"/>
      <point x="1211.6695652173912" y="1473"/>
      <point x="1469.6695652173912" y="996"/>
      <point x="1389.6695652173912" y="656" type="qcurve" smooth="yes"/>
      <point x="1303.6695652173912" y="290"/>
      <point x="789.6695652173913" y="-35"/>
      <point x="526.6695652173913" y="5" type="qcurve" smooth="yes"/>
      <point x="257.6695652173913" y="46"/>
      <point x="-26.33043478260869" y="529"/>
    </contour>
    <contour>
      <point x="242.66956521739132" y="849" type="qcurve" smooth="yes"/>
      <point x="169.66956521739132" y="559"/>
      <point x="338.6695652173913" y="149"/>
      <point x="554.6695652173913" y="117" type="qcurve" smooth="yes"/>
      <point x="796.6695652173913" y="81"/>
      <point x="1128.6695652173912" y="353"/>
      <point x="1202.6695652173912" y="666" type="qcurve" smooth="yes"/>
      <point x="1270.6695652173912" y="953"/>
      <point x="1106.6695652173912" y="1351"/>
      <point x="888.6695652173913" y="1384" type="qcurve" smooth="yes"/>
      <point x="665.6695652173913" y="1418"/>
      <point x="319.6695652173913" y="1158"/>
    </contour>
    <contour>
      <point x="340.6695652173913" y="-3" type="qcurve"/>
      <point x="1049.6695652173912" y="-315" type="line" smooth="yes"/>
      <point x="1111.6695652173912" y="-342"/>
      <point x="1233.6695652173912" y="-250"/>
      <point x="1267.6695652173912" y="-199" type="qcurve"/>
      <point x="1340.6695652173912" y="-262" type="line"/>
      <point x="1293.6695652173912" y="-359"/>
      <point x="1136.6695652173912" y="-480"/>
      <point x="1019.6695652173913" y="-463" type="qcurve"/>
      <point x="304.6695652173913" y="-142" type="line"/>
      <point x="252.66956521739132" y="-134"/>
      <point x="145.66956521739132" y="-162"/>
      <point x="86.66956521739131" y="-205" type="qcurve"/>
      <point x="35.66956521739131" y="-134" type="line"/>
      <point x="97.66956521739131" y="-57"/>
      <point x="254.66956521739132" y="5"/>
    </contour>
    <contour>
      <point x="278.6695652173913" y="-53" type="line"/>
      <point x="384.6695652173913" y="75"/>
      <point x="502.6695652173913" y="207"/>
      <point x="594.6695652173913" y="312" type="qcurve" smooth="yes"/>
      <point x="601.6695652173913" y="320"/>
      <point x="612.6695652173913" y="332"/>
      <point x="624.6695652173913" y="344" type="qcurve"/>
      <point x="649.6695652173913" y="334"/>
      <point x="697.6695652173913" y="298"/>
      <point x="709.6695652173913" y="285" type="qcurve"/>
      <point x="700.6695652173913" y="272"/>
      <point x="687.6695652173913" y="256"/>
      <point x="678.6695652173913" y="246" type="qcurve" smooth="yes"/>
      <point x="587.6695652173913" y="153"/>
      <point x="464.6695652173913" y="28"/>
      <point x="359.6695652173913" y="-88" type="qcurve"/>
    </contour>
  </outline>
</glyph>
<glyph name="R" format="2">
  <advance width="982"/>
  <unicode hex="0052"/>
  <anchor x="443.0" y="0" name="bottom"/>
  <anchor x="620.0" y="1500" name="top"/>
  <outline>
    <contour>
      <point x="-216" y="0" type="line"/>
      <point x="-197" y="100" type="line"/>
      <point x="-1" y="126" type="line"/>
      <point x="122" y="754" type="line"/>
      <point x="236" y="1362" type="line"/>
      <point x="53" y="1386" type="line"/>
      <point x="66" y="1500" type="line"/>
      <point x="624" y="1500" type="line" smooth="yes"/>
      <point x="817" y="1500"/>
      <point x="999" y="1288"/>
      <point x="966" y="1122" type="qcurve" smooth="yes"/>
      <point x="932" y="953"/>
      <point x="646" y="746"/>
      <point x="509" y="746" type="qcurve" smooth="yes"/>
      <point x="448" y="746"/>
      <point x="252" y="745"/>
      <point x="201" y="750" type="qcurve"/>
      <point x="219" y="845" type="line"/>
      <point x="323" y="845" type="line"/>
      <point x="461" y="845" type="line" smooth="yes"/>
      <point x="620" y="845"/>
      <point x="756" y="977"/>
      <point x="782" y="1116" type="qcurve" smooth="yes"/>
      <point x="804" y="1232"/>
      <point x="710" y="1382"/>
      <point x="586" y="1382" type="qcurve" smooth="yes"/>
      <point x="434" y="1382" type="line"/>
      <point x="404" y="1364" type="line"/>
      <point x="282" y="754" type="line"/>
      <point x="163" y="126" type="line"/>
      <point x="352" y="100" type="line"/>
      <point x="333" y="0" type="line"/>
    </contour>
    <contour>
      <point x="486" y="792" type="line"/>
      <point x="637" y="820" type="line"/>
      <point x="650" y="718" type="line" smooth="yes"/>
      <point x="675" y="524"/>
      <point x="816" y="130"/>
      <point x="1003" y="99" type="qcurve"/>
      <point x="974" y="0" type="line"/>
      <point x="898" y="0" type="line" smooth="yes"/>
      <point x="698" y="0"/>
      <point x="526" y="447"/>
      <point x="499" y="681" type="qcurve" smooth="yes"/>
    </contour>
  </outline>
</glyph>
<glyph name="underscore" format="2">
  <advance width="1248"/>
  <unicode hex="005F"/>
  <outline>
    <contour>
      <point x="-291" y="-480" type="line"/>
      <point x="-264" y="-342" type="line"/>
      <point x="484" y="-348" type="line"/>
      <point x="1224" y="-342" type="line"/>
      <point x="1197" y="-480" type="line"/>
      <point x="453" y="-490" type="line"/>
    </contour>
  </outline>
</glyph>
<glyph name="bar" format="2">
  <advance width="404"/>
  <unicode hex="007C"/>
  <outline>
    <contour>
      <point x="-149" y="-540" type="line"/>
      <point x="-43" y="-58" type="line"/>
      <point x="31" y="250" type="line"/>
      <point x="141" y="830" type="line"/>
      <point x="189" y="1138" type="line"/>
      <point x="244" y="1480" type="line"/>
      <point x="437" y="1550" type="line"/>
      <point x="345" y="1138" type="line"/>
      <point x="271" y="830" type="line"/>
      <point x="161" y="250" type="line"/>
      <point x="113" y="-58" type="line"/>
      <point x="45" y="-470" type="line"/>
    </contour>
  </outline>
</glyph>
<glyph name="currency" format="2">
  <advance width="1268"/>
  <unicode hex="00A4"/>
  <outline>
    <contour>
      <point x="239" y="789" type="qcurve" smooth="yes"/>
      <point x="239" y="965"/>
      <point x="470" y="1212"/>
      <point x="658" y="1212" type="qcurve" smooth="yes"/>
      <point x="847" y="1212"/>
      <point x="1081" y="981"/>
      <point x="1081" y="794" type="qcurve" smooth="yes"/>
      <point x="1081" y="619"/>
      <point x="851" y="366"/>
      <point x="663" y="366" type="qcurve" smooth="yes"/>
      <point x="474" y="366"/>
      <point x="239" y="600"/>
    </contour>
    <contour>
      <point x="393" y="803" type="qcurve" smooth="yes"/>
      <point x="394" y="677"/>
      <point x="537" y="504"/>
      <point x="656" y="504" type="qcurve" smooth="yes"/>
      <point x="787" y="504"/>
      <point x="927" y="662"/>
      <point x="927" y="794" type="qcurve" smooth="yes"/>
      <point x="927" y="914"/>
      <point x="780" y="1070"/>
      <point x="658" y="1070" type="qcurve" smooth="yes"/>
      <point x="527" y="1070"/>
      <point x="392" y="927"/>
    </contour>
    <contour>
      <point x="373" y="994" type="line"/>
      <point x="137" y="1228" type="line"/>
      <point x="239" y="1336" type="line"/>
      <point x="475" y="1102" type="line"/>
    </contour>
    <contour>
      <point x="966" y="985" type="line"/>
      <point x="863" y="1092" type="line"/>
      <point x="1095" y="1326" type="line"/>
      <point x="1198" y="1219" type="line"/>
    </contour>
    <contour>
      <point x="377" y="571" type="line"/>
      <point x="479" y="463" type="line"/>
      <point x="247" y="229" type="line"/>
      <point x="145" y="337" type="line"/>
    </contour>
    <contour>
      <point x="955" y="574" type="line"/>
      <point x="1184" y="347" type="line"/>
      <point x="1081" y="240" type="line"/>
      <point x="852" y="467" type="line"/>
    </contour>
  </outline>
</glyph>
<glyph name="ordfeminine" format="2">
  <advance width="733"/>
  <unicode hex="00AA"/>
  <outline>
    <contour>
      <point x="233" y="928" type="qcurve" smooth="yes"/>
      <point x="233" y="873"/>
      <point x="277" y="799"/>
      <point x="329" y="799" type="qcurve" smooth="yes"/>
      <point x="417" y="799"/>
      <point x="583" y="939"/>
      <point x="610" y="1071" type="qcurve" smooth="yes"/>
      <point x="655" y="1291" type="line"/>
      <point x="652" y="1321"/>
      <point x="595" y="1340"/>
      <point x="565" y="1340" type="qcurve" smooth="yes"/>
      <point x="415" y="1340"/>
      <point x="233" y="1103"/>
    </contour>
    <contour>
      <point x="77" y="882" type="qcurve" smooth="yes"/>
      <point x="77" y="1115"/>
      <point x="430" y="1461"/>
      <point x="600" y="1461" type="qcurve" smooth="yes"/>
      <point x="615" y="1461"/>
      <point x="660" y="1451"/>
      <point x="676" y="1442" type="qcurve"/>
      <point x="740" y="1499" type="line"/>
      <point x="777" y="1499" type="line"/>
      <point x="829" y="1391" type="line"/>
      <point x="728" y="974" type="line"/>
      <point x="689" y="787" type="line"/>
      <point x="722" y="702" type="line"/>
      <point x="589" y="681" type="line"/>
      <point x="534" y="805" type="line"/>
      <point x="472" y="748"/>
      <point x="336" y="680"/>
      <point x="257" y="680" type="qcurve"/>
      <point x="162" y="680"/>
      <point x="77" y="797"/>
    </contour>
  </outline>
</glyph>
<glyph name="guillemotleft" format="2">
  <advance width="1095"/>
  <unicode hex="00AB"/>
  <outline>
    <contour>
      <point x="-51" y="624" type="line"/>
      <point x="-51" y="624"/>
      <point x="534" y="953"/>
      <point x="613" y="993" type="qcurve" smooth="yes"/>
      <point x="678" y="1026"/>
      <point x="733" y="914"/>
      <point x="673" y="879" type="qcurve" smooth="yes"/>
      <point x="508" y="783"/>
      <point x="178" y="598"/>
      <point x="178" y="598" type="qcurve"/>
      <point x="178" y="598"/>
      <point x="463" y="371"/>
      <point x="544" y="307" type="qcurve" smooth="yes"/>
      <point x="600" y="263"/>
      <point x="524" y="175"/>
      <point x="459" y="213" type="qcurve" smooth="yes"/>
      <point x="399" y="247"/>
      <point x="7" y="536"/>
      <point x="-59" y="584" type="qcurve"/>
    </contour>
    <contour>
      <point x="427" y="605" type="line"/>
      <point x="427" y="605"/>
      <point x="1012" y="934"/>
      <point x="1091" y="974" type="qcurve" smooth="yes"/>
      <point x="1156" y="1007"/>
      <point x="1211" y="895"/>
      <point x="1151" y="860" type="qcurve" smooth="yes"/>
      <point x="986" y="764"/>
      <point x="656" y="579"/>
      <point x="656" y="579" type="qcurve"/>
      <point x="656" y="579"/>
      <point x="923" y="371"/>
      <point x="1004" y="307" type="qcurve" smooth="yes"/>
      <point x="1060" y="263"/>
      <point x="984" y="175"/>
      <point x="919" y="213" type="qcurve" smooth="yes"/>
      <point x="859" y="247"/>
      <point x="485" y="517"/>
      <point x="419" y="565" type="qcurve"/>
    </contour>
  </outline>
</glyph>
<glyph name="ordmasculine" format="2">
  <advance width="803"/>
  <unicode hex="00BA"/>
  <outline>
    <contour>
      <point x="104" y="1106" type="qcurve" smooth="yes"/>
      <point x="144" y="1280"/>
      <point x="413" y="1510"/>
      <point x="587" y="1499" type="qcurve" smooth="yes"/>
      <point x="760" y="1487"/>
      <point x="925" y="1245"/>
      <point x="883" y="1060" type="qcurve" smooth="yes"/>
      <point x="844" y="887"/>
      <point x="575" y="651"/>
      <point x="401" y="662" type="qcurve" smooth="yes"/>
      <point x="227" y="674"/>
      <point x="62" y="919"/>
    </contour>
    <contour>
      <point x="263" y="1108" type="qcurve" smooth="yes"/>
      <point x="233" y="973"/>
      <point x="312" y="779"/>
      <point x="419" y="771" type="qcurve" smooth="yes"/>
      <point x="534" y="763"/>
      <point x="691" y="929"/>
      <point x="723" y="1071" type="qcurve" smooth="yes"/>
      <point x="753" y="1202"/>
      <point x="668" y="1378"/>
      <point x="561" y="1385" type="qcurve" smooth="yes"/>
      <point x="445" y="1393"/>
      <point x="293" y="1244"/>
    </contour>
  </outline>
</glyph>
<glyph name="OE" format="2">
  <advance width="1931"/>
  <unicode hex="0152"/>
  <outline>
    <contour>
      <point x="62.571428571428584" y="846" type="qcurve" smooth="yes"/>
      <point x="147.57142857142856" y="1172"/>
      <point x="651.5714285714286" y="1534"/>
      <point x="927.5714285714286" y="1519" type="qcurve"/>
      <point x="1076.5714285714287" y="1511"/>
      <point x="1297.5714285714287" y="1500"/>
      <point x="1358.5714285714287" y="1500" type="qcurve" smooth="yes"/>
      <point x="1961.5714285714287" y="1500" type="line"/>
      <point x="1924.5714285714287" y="1152" type="line"/>
      <point x="1825.5714285714287" y="1152" type="line"/>
      <point x="1818.5714285714287" y="1382" type="line"/>
      <point x="1365.5714285714287" y="1382" type="line"/>
      <point x="1330.5714285714287" y="1362" type="line"/>
      <point x="1215.5714285714287" y="783" type="line"/>
      <point x="1093.5714285714287" y="135" type="line"/>
      <point x="1131.5714285714287" y="108" type="line"/>
      <point x="1647.5714285714287" y="108" type="line"/>
      <point x="1738.5714285714287" y="378" type="line"/>
      <point x="1838.5714285714287" y="378" type="line"/>
      <point x="1749.5714285714287" y="0" type="line"/>
      <point x="1014.5714285714286" y="0" type="line" smooth="yes"/>
      <point x="921.5714285714286" y="0"/>
      <point x="641.5714285714286" y="-34"/>
      <point x="531.5714285714286" y="-17" type="qcurve" smooth="yes"/>
      <point x="246.57142857142856" y="27"/>
      <point x="-25.428571428571416" y="508"/>
    </contour>
    <contour>
      <point x="249.57142857142856" y="849" type="qcurve" smooth="yes"/>
      <point x="159.57142857142856" y="491"/>
      <point x="430.57142857142856" y="97"/>
      <point x="656.5714285714286" y="97" type="qcurve" smooth="yes"/>
      <point x="797.5714285714286" y="97"/>
      <point x="878.5714285714286" y="112"/>
      <point x="928.5714285714286" y="127" type="qcurve"/>
      <point x="1056.5714285714287" y="783" type="line"/>
      <point x="1165.5714285714287" y="1363" type="line"/>
      <point x="1123.5714285714287" y="1370"/>
      <point x="965.5714285714286" y="1386"/>
      <point x="930.5714285714286" y="1388" type="qcurve" smooth="yes"/>
      <point x="691.5714285714286" y="1401"/>
      <point x="327.57142857142856" y="1158"/>
    </contour>
    <contour>
      <point x="1133.5714285714287" y="768" type="line"/>
      <point x="1147.5714285714287" y="844" type="line"/>
      <point x="1576.5714285714287" y="854" type="line"/>
      <point x="1631.5714285714287" y="1003" type="line"/>
      <point x="1731.5714285714287" y="1003" type="line"/>
      <point x="1646.5714285714287" y="567" type="line"/>
      <point x="1546.5714285714287" y="567" type="line"/>
      <point x="1556.5714285714287" y="738" type="line"/>
    </contour>
  </outline>
</glyph>
<glyph name="Theta" format="2">
  <advance width="1318"/>
  <unicode hex="0398"/>
  <outline>
    <contour>
      <point x="486.12018140589566" y="-17" type="qcurve" smooth="yes"/>
      <point x="200.12018140589566" y="23"/>
      <point x="-64.87981859410431" y="530"/>
      <point x="23.120181405895693" y="868" type="qcurve" smooth="yes"/>
      <point x="108.12018140589569" y="1194"/>
      <point x="609.1201814058957" y="1562"/>
      <point x="882.1201814058957" y="1519" type="qcurve" smooth="yes"/>
      <point x="1173.1201814058957" y="1473"/>
      <point x="1431.1201814058957" y="1000"/>
      <point x="1351.1201814058957" y="656" type="qcurve" smooth="yes"/>
      <point x="1264.1201814058957" y="283"/>
      <point x="767.1201814058957" y="-56"/>
    </contour>
    <contour>
      <point x="516.1201814058957" y="117" type="qcurve" smooth="yes"/>
      <point x="758.1201814058957" y="81"/>
      <point x="1091.1201814058957" y="352"/>
      <point x="1164.1201814058957" y="666" type="qcurve" smooth="yes"/>
      <point x="1231.1201814058957" y="955"/>
      <point x="1068.1201814058957" y="1351"/>
      <point x="850.1201814058957" y="1384" type="qcurve" smooth="yes"/>
      <point x="627.1201814058957" y="1418"/>
      <point x="281.12018140589566" y="1158"/>
      <point x="204.12018140589566" y="849" type="qcurve" smooth="yes"/>
      <point x="131.1201814058957" y="559"/>
      <point x="300.12018140589566" y="149"/>
    </contour>
    <contour>
      <point x="303.12018140589566" y="670" type="line"/>
      <point x="336.12018140589566" y="823" type="line"/>
      <point x="692.1201814058957" y="803" type="line"/>
      <point x="1055.1201814058957" y="823" type="line"/>
      <point x="1022.1201814058957" y="670" type="line"/>
      <point x="668.1201814058957" y="692" type="line"/>
    </contour>
  </outline>
</glyph>
<glyph name="Xi" format="2">
  <advance width="1229"/>
  <unicode hex="039E"/>
  <outline>
    <contour>
      <point x="153" y="1132" type="line"/>
      <point x="225" y="1500" type="line"/>
      <point x="1335" y="1500" type="line"/>
      <point x="1282" y="1132" type="line"/>
      <point x="1182" y="1132" type="line"/>
      <point x="1188" y="1353" type="line"/>
      <point x="759" y="1373" type="line"/>
      <point x="335" y="1353" type="line"/>
      <point x="267" y="1132" type="line"/>
    </contour>
    <contour>
      <point x="196" y="509" type="line"/>
      <point x="284" y="964" type="line"/>
      <point x="390" y="964" type="line"/>
      <point x="388" y="815" type="line"/>
      <point x="658" y="803" type="line"/>
      <point x="931" y="815" type="line"/>
      <point x="987" y="964" type="line"/>
      <point x="1093" y="964" type="line"/>
      <point x="1005" y="509" type="line"/>
      <point x="908" y="509" type="line"/>
      <point x="912" y="666" type="line"/>
      <point x="633" y="677" type="line"/>
      <point x="349" y="666" type="line"/>
      <point x="293" y="509" type="line"/>
    </contour>
    <contour>
      <point x="-54" y="0" type="line"/>
      <point x="-18" y="398" type="line"/>
      <point x="92" y="398" type="line"/>
      <point x="93" y="140" type="line"/>
      <point x="525" y="120" type="line"/>
      <point x="949" y="140" type="line"/>
      <point x="1040" y="398" type="line"/>
      <point x="1150" y="398" type="line"/>
      <point x="1066" y="0" type="line"/>
    </contour>
  </outline>
</glyph>
<glyph name="theta" format="2">
  <advance width="948"/>
  <unicode hex="03B8"/>
  <outline>
    <contour>
      <point x="279" y="-16" type="qcurve" smooth="yes"/>
      <point x="136" y="-7"/>
      <point x="-4" y="185"/>
      <point x="34" y="369" type="qcurve" smooth="yes"/>
      <point x="61" y="501" type="line"/>
      <point x="-81" y="498" type="line"/>
      <point x="-79" y="594" type="line"/>
      <point x="140" y="681" type="line"/>
      <point x="185" y="681" type="line"/>
      <point x="227" y="602" type="line"/>
      <point x="184" y="354" type="line" smooth="yes"/>
      <point x="157" y="200"/>
      <point x="221" y="97"/>
      <point x="301" y="91" type="qcurve" smooth="yes"/>
      <point x="447" y="82"/>
      <point x="685" y="385"/>
      <point x="757" y="689" type="qcurve"/>
      <point x="455" y="695"/>
      <point x="170" y="988"/>
      <point x="217" y="1236" type="qcurve" smooth="yes"/>
      <point x="244" y="1369"/>
      <point x="459" y="1546"/>
      <point x="633" y="1535" type="qcurve" smooth="yes"/>
      <point x="855" y="1519"/>
      <point x="1025" y="1133"/>
      <point x="928" y="676" type="qcurve" smooth="yes"/>
      <point x="862" y="376"/>
      <point x="526" y="-32"/>
    </contour>
    <contour>
      <point x="777" y="777" type="qcurve"/>
      <point x="832" y="1063"/>
      <point x="749" y="1410"/>
      <point x="600" y="1421" type="qcurve" smooth="yes"/>
      <point x="517" y="1427"/>
      <point x="388" y="1317"/>
      <point x="369" y="1227" type="qcurve" smooth="yes"/>
      <point x="332" y="1053"/>
      <point x="527" y="809"/>
    </contour>
  </outline>
</glyph>
<glyph name="omega" format="2">
  <advance width="1167"/>
  <unicode hex="03C9"/>
  <anchor x="648" y="1000" name="GRKtop"/>
  <outline>
    <contour>
      <point x="173" y="-15" type="qcurve" smooth="yes"/>
      <point x="10" y="-5"/>
      <point x="-126" y="276"/>
      <point x="-85" y="496" type="qcurve" smooth="yes"/>
      <point x="-57" y="644"/>
      <point x="139" y="933"/>
      <point x="292" y="1018" type="qcurve"/>
      <point x="390" y="958" type="line"/>
      <point x="257" y="864"/>
      <point x="106" y="624"/>
      <point x="81" y="498" type="qcurve" smooth="yes"/>
      <point x="50" y="338"/>
      <point x="122" y="136"/>
      <point x="230" y="127" type="qcurve" smooth="yes"/>
      <point x="300" y="121"/>
      <point x="430" y="215"/>
      <point x="459" y="310" type="qcurve"/>
      <point x="500" y="688" type="line"/>
      <point x="669" y="737" type="line"/>
      <point x="700" y="712" type="line"/>
      <point x="582" y="310" type="line"/>
      <point x="577" y="231"/>
      <point x="659" y="133"/>
      <point x="738" y="128" type="qcurve" smooth="yes"/>
      <point x="843" y="121"/>
      <point x="985" y="262"/>
      <point x="1012" y="392" type="qcurve" smooth="yes"/>
      <point x="1048" y="560"/>
      <point x="1005" y="856"/>
      <point x="913" y="958" type="qcurve"/>
      <point x="1034" y="1018" type="line"/>
      <point x="1149" y="908"/>
      <point x="1228" y="578"/>
      <point x="1181" y="374" type="qcurve" smooth="yes"/>
      <point x="1136" y="182"/>
      <point x="894" y="-27"/>
      <point x="731" y="-15" type="qcurve" smooth="yes"/>
      <point x="622" y="-7"/>
      <point x="516" y="94"/>
      <point x="504" y="193" type="qcurve"/>
      <point x="497" y="193" type="line"/>
      <point x="462" y="112"/>
      <point x="306" y="-23"/>
    </contour>
  </outline>
</glyph>
<glyph name="Ieukran" format="2">
  <advance width="1174"/>
  <unicode hex="0404"/>
  <outline>
    <contour>
      <point x="92.07281553398057" y="756" type="line"/>
      <point x="111.07281553398057" y="838" type="line"/>
      <point x="670.0728155339806" y="845" type="line"/>
      <point x="729.0728155339806" y="1004" type="line"/>
      <point x="839.0728155339806" y="1004" type="line"/>
      <point x="754.0728155339806" y="568" type="line"/>
      <point x="654.0728155339806" y="568" type="line"/>
      <point x="658.0728155339806" y="729" type="line"/>
    </contour>
    <contour>
      <point x="18.072815533980574" y="839" type="qcurve" smooth="yes"/>
      <point x="105.07281553398057" y="1165"/>
      <point x="644.0728155339806" y="1565"/>
      <point x="917.0728155339806" y="1523" type="qcurve" smooth="yes"/>
      <point x="994.0728155339806" y="1512"/>
      <point x="1114.0728155339805" y="1473"/>
      <point x="1164.0728155339805" y="1448" type="qcurve"/>
      <point x="1190.0728155339805" y="1434" type="line"/>
      <point x="1214.0728155339805" y="1420" type="line"/>
      <point x="1151.0728155339805" y="1055" type="line"/>
      <point x="1043.0728155339807" y="1055" type="line"/>
      <point x="1053.0728155339805" y="1264" type="line"/>
      <point x="1022.0728155339807" y="1323"/>
      <point x="906.0728155339806" y="1381"/>
      <point x="854.0728155339806" y="1389" type="qcurve" smooth="yes"/>
      <point x="633.0728155339806" y="1423"/>
      <point x="282.0728155339806" y="1151"/>
      <point x="205.0728155339806" y="842" type="qcurve" smooth="yes"/>
      <point x="132.0728155339806" y="552"/>
      <point x="296.0728155339806" y="151"/>
      <point x="492.0728155339806" y="121" type="qcurve" smooth="yes"/>
      <point x="683.0728155339806" y="92"/>
      <point x="968.0728155339806" y="215"/>
      <point x="1058.0728155339805" y="351" type="qcurve"/>
      <point x="1082.0728155339805" y="337" type="line"/>
      <point x="1105.0728155339805" y="262" type="line"/>
      <point x="981.0728155339806" y="84"/>
      <point x="645.0728155339806" y="-40"/>
      <point x="443.0728155339806" y="-16" type="qcurve" smooth="yes"/>
      <point x="175.0728155339806" y="16"/>
      <point x="-66.92718446601943" y="523"/>
    </contour>
  </outline>
</glyph>
<glyph name="Lje" format="2">
  <advance width="1681"/>
  <unicode hex="0409"/>
  <outline>
    <contour>
      <point x="1258" y="788" type="qcurve" smooth="yes"/>
      <point x="1065" y="788" type="line"/>
      <point x="1054" y="774" type="line"/>
      <point x="935" y="128" type="line"/>
      <point x="959" y="108" type="line"/>
      <point x="1137" y="108" type="line" smooth="yes"/>
      <point x="1305" y="108"/>
      <point x="1507" y="251"/>
      <point x="1532" y="420" type="qcurve" smooth="yes"/>
      <point x="1556" y="585"/>
      <point x="1415" y="788"/>
    </contour>
    <contour>
      <point x="388" y="1362" type="line"/>
      <point x="199" y="1385" type="line"/>
      <point x="211" y="1500" type="line"/>
      <point x="1381" y="1500" type="line"/>
      <point x="1359" y="1385" type="line"/>
      <point x="1171" y="1362" type="line"/>
      <point x="1081" y="912" type="line"/>
      <point x="1086" y="901" type="line"/>
      <point x="1262" y="901" type="line" smooth="yes"/>
      <point x="1519" y="901"/>
      <point x="1744" y="627"/>
      <point x="1712" y="413" type="qcurve" smooth="yes"/>
      <point x="1684" y="226"/>
      <point x="1375" y="0"/>
      <point x="1165" y="0" type="qcurve" smooth="yes"/>
      <point x="563" y="0" type="line"/>
      <point x="582" y="100" type="line"/>
      <point x="764" y="120" type="line"/>
      <point x="885" y="729" type="line"/>
      <point x="1001" y="1362" type="line"/>
      <point x="971" y="1382" type="line"/>
      <point x="569" y="1382" type="line"/>
      <point x="534" y="1362" type="line"/>
      <point x="395" y="714" type="line" smooth="yes"/>
      <point x="322" y="372"/>
      <point x="132" y="-17"/>
      <point x="-59" y="-17" type="qcurve" smooth="yes"/>
      <point x="-106" y="-17"/>
      <point x="-143" y="-10"/>
      <point x="-170" y="0" type="qcurve"/>
      <point x="-132" y="167" type="line"/>
      <point x="-109" y="159"/>
      <point x="-74" y="154"/>
      <point x="-51" y="154" type="qcurve" smooth="yes"/>
      <point x="51" y="154"/>
      <point x="192" y="445"/>
      <point x="252" y="723" type="qcurve" smooth="yes"/>
    </contour>
  </outline>
</glyph>
<glyph name="Tshe" format="2">
  <advance width="1661"/>
  <unicode hex="040B"/>
  <outline>
    <contour>
      <point x="71" y="1099" type="line"/>
      <point x="154" y="1500" type="line"/>
      <point x="1251" y="1500" type="line"/>
      <point x="1170" y="1119" type="line"/>
      <point x="1070" y="1119" type="line"/>
      <point x="1096" y="1382" type="line"/>
      <point x="758" y="1382" type="line"/>
      <point x="744" y="1362" type="line"/>
      <point x="624" y="754" type="line"/>
      <point x="503" y="125" type="line"/>
      <point x="695" y="100" type="line"/>
      <point x="687" y="0" type="line"/>
      <point x="128" y="0" type="line"/>
      <point x="136" y="100" type="line"/>
      <point x="336" y="125" type="line"/>
      <point x="465" y="754" type="line"/>
      <point x="581" y="1362" type="line"/>
      <point x="577" y="1382" type="line"/>
      <point x="263" y="1382" type="line"/>
      <point x="171" y="1099" type="line"/>
    </contour>
    <contour>
      <point x="1186" y="426" type="line" smooth="yes"/>
      <point x="1222" y="607"/>
      <point x="1080" y="764"/>
      <point x="927" y="764" type="qcurve" smooth="yes"/>
      <point x="830" y="764"/>
      <point x="634" y="730"/>
      <point x="532" y="690" type="qcurve"/>
      <point x="553" y="799" type="line"/>
      <point x="650.7466397077" y="839.2486163502"/>
      <point x="841" y="881"/>
      <point x="961" y="881" type="qcurve" smooth="yes"/>
      <point x="1197" y="881"/>
      <point x="1390.6319669078" y="649.5177426931"/>
      <point x="1349" y="419" type="qcurve" smooth="yes"/>
      <point x="1295" y="120" type="line"/>
      <point x="1489" y="100" type="line"/>
      <point x="1480" y="0" type="line"/>
      <point x="1102" y="0" type="line"/>
    </contour>
  </outline>
</glyph>
<glyph name="De" format="2">
  <advance width="1234"/>
  <unicode hex="0414"/>
  <outline>
    <contour>
      <point x="369" y="1362" type="line"/>
      <point x="175" y="1385" type="line"/>
      <point x="187" y="1500" type="line"/>
      <point x="1430" y="1500" type="line"/>
      <point x="1408" y="1385" type="line"/>
      <point x="1225" y="1362" type="line"/>
      <point x="1108" y="771" type="line"/>
      <point x="974" y="56" type="line"/>
      <point x="805" y="56" type="line"/>
      <point x="952" y="788" type="line"/>
      <point x="1056" y="1362" type="line"/>
      <point x="1025" y="1382" type="line"/>
      <point x="540" y="1382" type="line"/>
      <point x="505" y="1362" type="line"/>
      <point x="371" y="762" type="line" smooth="yes"/>
      <point x="319" y="528"/>
      <point x="198.4609620576" y="191.812748891"/>
      <point x="122" y="57" type="qcurve"/>
      <point x="-46" y="57" type="line"/>
      <point x="55" y="212"/>
      <point x="184" y="533"/>
      <point x="237" y="771" type="qcurve" smooth="yes"/>
    </contour>
    <contour>
      <point x="1015" y="-338" type="line"/>
      <point x="1011" y="0" type="line"/>
      <point x="-14" y="0" type="line"/>
      <point x="-148" y="-338" type="line"/>
      <point x="-250" y="-338" type="line"/>
      <point x="-154" y="108" type="line"/>
      <point x="1193" y="108" type="line"/>
      <point x="1117" y="-338" type="line"/>
    </contour>
  </outline>
</glyph>
<glyph name="Zhe" format="2">
  <advance width="1753"/>
  <unicode hex="0416"/>
  <anchor x="776" y="0" name="bottom"/>
  <anchor x="1067.0" y="1500" name="top"/>
  <anchor x="1802.0" y="100" name="cy_descender"/>
  <outline>
    <contour>
      <point x="527" y="0" type="line"/>
      <point x="536" y="100" type="line"/>
      <point x="720" y="125" type="line"/>
      <point x="843" y="754" type="line"/>
      <point x="957" y="1362" type="line"/>
      <point x="775" y="1386" type="line"/>
      <point x="788" y="1500" type="line"/>
      <point x="1319" y="1500" type="line"/>
      <point x="1306" y="1386" type="line"/>
      <point x="1124" y="1362" type="line"/>
      <point x="1003" y="754" type="line"/>
      <point x="892" y="125" type="line"/>
      <point x="1076" y="100" type="line"/>
      <point x="1067" y="0" type="line"/>
    </contour>
    <contour>
      <point x="922" y="738" type="line"/>
      <point x="945" y="855" type="line"/>
      <point x="1182" y="854" type="line"/>
      <point x="1606" y="1348" type="line"/>
      <point x="1502" y="1386" type="line"/>
      <point x="1515" y="1500" type="line"/>
      <point x="1935" y="1500" type="line"/>
      <point x="1922" y="1386" type="line"/>
      <point x="1761" y="1348" type="line"/>
      <point x="1259" y="781" type="line"/>
      <point x="1191" y="739" type="line"/>
    </contour>
    <contour>
      <point x="1148" y="752" type="line"/>
      <point x="1264" y="865" type="line"/>
      <point x="1638" y="125" type="line"/>
      <point x="1792" y="100" type="line"/>
      <point x="1783" y="0" type="line"/>
      <point x="1313" y="0" type="line"/>
      <point x="1322" y="100" type="line"/>
      <point x="1463" y="125" type="line"/>
    </contour>
    <contour>
      <point x="922" y="738" type="line"/>
      <point x="654" y="739" type="line"/>
      <point x="607" y="781" type="line"/>
      <point x="312" y="1348" type="line"/>
      <point x="166" y="1386" type="line"/>
      <point x="180" y="1500" type="line"/>
      <point x="592" y="1500" type="line"/>
      <point x="578" y="1386" type="line"/>
      <point x="459" y="1348" type="line"/>
      <point x="707" y="854" type="line"/>
      <point x="945" y="855" type="line"/>
    </contour>
    <contour>
      <point x="702" y="752" type="line"/>
      <point x="160" y="125" type="line"/>
      <point x="291" y="100" type="line"/>
      <point x="281" y="0" type="line"/>
      <point x="-197" y="0" type="line"/>
      <point x="-187" y="100" type="line"/>
      <point x="-23" y="125" type="line"/>
      <point x="621" y="865" type="line"/>
    </contour>
  </outline>
</glyph>
<glyph name="Icyr" format="2">
  <advance width="1245"/>
  <unicode hex="0418"/>
  <anchor x="503" y="0" name="bottom"/>
  <anchor x="790.0" y="1500" name="top"/>
  <outline>
    <contour>
      <point x="78" y="152" type="line"/>
      <point x="113" y="328" type="line"/>
      <point x="611" y="778" type="line"/>
      <point x="1210" y="1336" type="line"/>
      <point x="1181" y="1159" type="line"/>
      <point x="680" y="706" type="line"/>
    </contour>
    <contour>
      <point x="-216" y="0" type="line"/>
      <point x="-197" y="100" type="line"/>
      <point x="-10" y="120" type="line"/>
      <point x="129" y="806" type="line"/>
      <point x="228" y="1362" type="line"/>
      <point x="34" y="1385" type="line"/>
      <point x="46" y="1500" type="line"/>
      <point x="603" y="1500" type="line"/>
      <point x="581" y="1385" type="line"/>
      <point x="397" y="1362" type="line"/>
      <point x="285" y="790" type="line"/>
      <point x="159" y="120" type="line"/>
      <point x="350" y="100" type="line"/>
      <point x="341" y="0" type="line"/>
    </contour>
    <contour>
      <point x="689" y="0" type="line"/>
      <point x="708" y="100" type="line"/>
      <point x="895" y="120" type="line"/>
      <point x="1029" y="788" type="line"/>
      <point x="1133" y="1362" type="line"/>
      <point x="939" y="1385" type="line"/>
      <point x="951" y="1500" type="line"/>
      <point x="1507" y="1500" type="line"/>
      <point x="1485" y="1385" type="line"/>
      <point x="1302" y="1362" type="line"/>
      <point x="1185" y="771" type="line"/>
      <point x="1064" y="120" type="line"/>
      <point x="1254" y="100" type="line"/>
      <point x="1245" y="0" type="line"/>
    </contour>
  </outline>
</glyph>
<glyph name="Ef" format="2">
  <advance width="1502"/>
  <unicode hex="0424"/>
  <outline>
    <contour>
      <point x="352" y="-25" type="line"/>
      <point x="371" y="77" type="line"/>
      <point x="571" y="102" type="line"/>
      <point x="604" y="265" type="line"/>
      <point x="609" y="291" type="line"/>
      <point x="702" y="754" type="line"/>
      <point x="792" y="1215" type="line"/>
      <point x="797" y="1242" type="line"/>
      <point x="825" y="1388" type="line"/>
      <point x="618" y="1411" type="line"/>
      <point x="631" y="1525" type="line"/>
      <point x="1201" y="1525" type="line"/>
      <point x="1178" y="1411" type="line"/>
      <point x="979" y="1388" type="line"/>
      <point x="949" y="1239" type="line"/>
      <point x="943" y="1210" type="line"/>
      <point x="852" y="754" type="line"/>
      <point x="760" y="284" type="line"/>
      <point x="754" y="255" type="line"/>
      <point x="725" y="103" type="line"/>
      <point x="931" y="77" type="line"/>
      <point x="912" y="-25" type="line"/>
    </contour>
    <contour>
      <point x="669" y="210" type="qcurve" smooth="yes"/>
      <point x="297" y="210"/>
      <point x="-31" y="455"/>
      <point x="-31" y="658" type="qcurve" smooth="yes"/>
      <point x="-31" y="926"/>
      <point x="406" y="1286"/>
      <point x="882" y="1285" type="qcurve" smooth="yes"/>
      <point x="1254" y="1285"/>
      <point x="1583" y="1043"/>
      <point x="1583" y="840" type="qcurve" smooth="yes"/>
      <point x="1583" y="572"/>
      <point x="1146" y="209"/>
    </contour>
    <contour>
      <point x="693" y="327" type="qcurve" smooth="yes"/>
      <point x="1054" y="322"/>
      <point x="1411" y="587"/>
      <point x="1411" y="826" type="qcurve" smooth="yes"/>
      <point x="1411" y="984"/>
      <point x="1182" y="1166"/>
      <point x="859" y="1171" type="qcurve" smooth="yes"/>
      <point x="498" y="1176"/>
      <point x="141" y="911"/>
      <point x="141" y="672" type="qcurve" smooth="yes"/>
      <point x="141" y="514"/>
      <point x="369" y="332"/>
    </contour>
  </outline>
</glyph>
<glyph name="Soft" format="2">
  <advance width="901"/>
  <unicode hex="042C"/>
  <outline>
    <contour>
      <point x="482" y="901" type="line" smooth="yes"/>
      <point x="739" y="901"/>
      <point x="964" y="627"/>
      <point x="932" y="413" type="qcurve" smooth="yes"/>
      <point x="904" y="226"/>
      <point x="595" y="0"/>
      <point x="385" y="0" type="qcurve" smooth="yes"/>
      <point x="-217" y="0" type="line"/>
      <point x="-198" y="100" type="line"/>
      <point x="-9" y="120" type="line"/>
      <point x="124" y="788" type="line"/>
      <point x="227" y="1362" type="line"/>
      <point x="33" y="1385" type="line"/>
      <point x="45" y="1500" type="line"/>
      <point x="602" y="1500" type="line"/>
      <point x="580" y="1385" type="line"/>
      <point x="396" y="1362" type="line"/>
      <point x="308" y="912" type="line"/>
      <point x="313" y="901" type="line"/>
    </contour>
    <contour>
      <point x="478" y="788" type="qcurve" smooth="yes"/>
      <point x="292" y="788" type="line"/>
      <point x="281" y="774" type="line"/>
      <point x="162" y="128" type="line"/>
      <point x="206" y="108" type="line"/>
      <point x="357" y="108" type="line" smooth="yes"/>
      <point x="525" y="108"/>
      <point x="727" y="251"/>
      <point x="752" y="420" type="qcurve" smooth="yes"/>
      <point x="776" y="585"/>
      <point x="635" y="788"/>
    </contour>
  </outline>
</glyph>
<glyph name="Ecyr" format="2">
  <advance width="1071"/>
  <unicode hex="042D"/>
  <anchor x="396.0" y="0" name="bottom"/>
  <anchor x="610.0" y="1500" name="top"/>
  <outline>
    <contour>
      <point x="287" y="1294" type="qcurve"/>
      <point x="209" y="1073" type="line"/>
      <point x="101" y="1073" type="line"/>
      <point x="175" y="1423" type="line"/>
      <point x="205" y="1438" type="line"/>
      <point x="236" y="1453" type="line"/>
      <point x="301" y="1487"/>
      <point x="456" y="1527"/>
      <point x="552" y="1527" type="qcurve" smooth="yes"/>
      <point x="880" y="1527"/>
      <point x="1192" y="1025"/>
      <point x="1108" y="656" type="qcurve" smooth="yes"/>
      <point x="1023" y="283"/>
      <point x="531" y="-51"/>
      <point x="243" y="-17" type="qcurve" smooth="yes"/>
      <point x="161" y="-7"/>
      <point x="28" y="32"/>
      <point x="-24" y="58" type="qcurve"/>
      <point x="-50" y="72" type="line"/>
      <point x="-74" y="86" type="line"/>
      <point x="-11" y="451" type="line"/>
      <point x="97" y="451" type="line"/>
      <point x="86" y="224" type="line"/>
      <point x="117" y="184"/>
      <point x="225" y="124"/>
      <point x="273" y="117" type="qcurve" smooth="yes"/>
      <point x="515" y="81"/>
      <point x="852" y="352"/>
      <point x="921" y="666" type="qcurve" smooth="yes"/>
      <point x="994" y="997"/>
      <point x="787" y="1389"/>
      <point x="535" y="1389" type="qcurve" smooth="yes"/>
      <point x="463" y="1389"/>
      <point x="337" y="1343"/>
    </contour>
    <contour>
      <point x="1043" y="811" type="line"/>
      <point x="1024" y="729" type="line"/>
      <point x="448" y="722" type="line"/>
      <point x="389" y="563" type="line"/>
      <point x="279" y="563" type="line"/>
      <point x="364" y="999" type="line"/>
      <point x="464" y="999" type="line"/>
      <point x="460" y="838" type="line"/>
    </contour>
  </outline>
</glyph>
<glyph name="Kaverticalstrokecyr" format="2">
  <advance width="1276"/>
  <unicode hex="049C"/>
  <outline>
    <contour>
      <point x="680" y="1185" type="line"/>
      <point x="514" y="329" type="line"/>
      <point x="373" y="329" type="line"/>
      <point x="539" y="1185" type="line"/>
    </contour>
    <contour>
      <point x="-212" y="0" type="line"/>
      <point x="-203" y="100" type="line"/>
      <point x="-7" y="125" type="line"/>
      <point x="116" y="754" type="line"/>
      <point x="230" y="1362" type="line"/>
      <point x="37" y="1386" type="line"/>
      <point x="50" y="1500" type="line"/>
      <point x="592" y="1500" type="line"/>
      <point x="579" y="1386" type="line"/>
      <point x="397" y="1362" type="line"/>
      <point x="276" y="754" type="line"/>
      <point x="165" y="125" type="line"/>
      <point x="349" y="100" type="line"/>
      <point x="340" y="0" type="line"/>
    </contour>
    <contour>
      <point x="523" y="739" type="line"/>
      <point x="544" y="856" type="line"/>
      <point x="745" y="854" type="line"/>
      <point x="1129" y="1348" type="line"/>
      <point x="1025" y="1386" type="line"/>
      <point x="1038" y="1500" type="line"/>
      <point x="1458" y="1500" type="line"/>
      <point x="1445" y="1386" type="line"/>
      <point x="1284" y="1348" type="line"/>
      <point x="822" y="781" type="line"/>
      <point x="754" y="739" type="line"/>
    </contour>
    <contour>
      <point x="711" y="752" type="line"/>
      <point x="827" y="865" type="line"/>
      <point x="1161" y="125" type="line"/>
      <point x="1315" y="100" type="line"/>
      <point x="1306" y="0" type="line"/>
      <point x="836" y="0" type="line"/>
      <point x="845" y="100" type="line"/>
      <point x="986" y="125" type="line"/>
    </contour>
  </outline>
</glyph>
<glyph name="Shha" format="2">
  <advance width="1409"/>
  <unicode hex="04BA"/>
  <outline>
    <contour>
      <point x="936" y="426" type="line" smooth="yes"/>
      <point x="976" y="632"/>
      <point x="811" y="794"/>
      <point x="602" y="794" type="qcurve" smooth="yes"/>
      <point x="491" y="794"/>
      <point x="298" y="756"/>
      <point x="192" y="720" type="qcurve"/>
      <point x="213" y="829" type="line"/>
      <point x="322" y="868"/>
      <point x="516" y="911"/>
      <point x="660" y="911" type="qcurve" smooth="yes"/>
      <point x="910" y="911"/>
      <point x="1146" y="677"/>
      <point x="1099" y="419" type="qcurve" smooth="yes"/>
      <point x="1045" y="120" type="line"/>
      <point x="1239" y="100" type="line"/>
      <point x="1230" y="0" type="line"/>
      <point x="674" y="0" type="line"/>
      <point x="693" y="100" type="line"/>
      <point x="876" y="120" type="line"/>
    </contour>
    <contour>
      <point x="-216" y="0" type="line"/>
      <point x="-197" y="100" type="line"/>
      <point x="-10" y="120" type="line"/>
      <point x="129" y="806" type="line"/>
      <point x="228" y="1362" type="line"/>
      <point x="34" y="1385" type="line"/>
      <point x="46" y="1500" type="line"/>
      <point x="603" y="1500" type="line"/>
      <point x="581" y="1385" type="line"/>
      <point x="397" y="1362" type="line"/>
      <point x="285" y="790" type="line"/>
      <point x="159" y="120" type="line"/>
      <point x="350" y="100" type="line"/>
      <point x="341" y="0" type="line"/>
    </contour>
  </outline>
</glyph>
<glyph name="emdash" format="2">
  <advance width="1848"/>
  <unicode hex="2014"/>
  <outline>
    <contour>
      <point x="156" y="562" type="line"/>
      <point x="156" y="700" type="line"/>
      <point x="924" y="702" type="line"/>
      <point x="1692" y="700" type="line"/>
      <point x="1692" y="562" type="line"/>
      <point x="924" y="556" type="line"/>
    </contour>
  </outline>
</glyph>
<glyph name="quotedblleft" format="2">
  <advance width="894"/>
  <unicode hex="201C"/>
  <outline>
    <contour>
      <point x="489" y="1493" type="line"/>
      <point x="446" y="1462"/>
      <point x="332" y="1344"/>
      <point x="312" y="1286" type="qcurve"/>
      <point x="380" y="1286"/>
      <point x="456" y="1214"/>
      <point x="456" y="1158" type="qcurve" smooth="yes"/>
      <point x="456" y="1103"/>
      <point x="371" y="1022"/>
      <point x="311" y="1022" type="qcurve" smooth="yes"/>
      <point x="255" y="1022"/>
      <point x="169" y="1121"/>
      <point x="169" y="1201" type="qcurve" smooth="yes"/>
      <point x="169" y="1300"/>
      <point x="340" y="1496"/>
      <point x="438" y="1555" type="qcurve"/>
    </contour>
    <contour>
      <point x="905" y="1493" type="line"/>
      <point x="862" y="1462"/>
      <point x="748" y="1344"/>
      <point x="728" y="1286" type="qcurve"/>
      <point x="796" y="1286"/>
      <point x="872" y="1214"/>
      <point x="872" y="1158" type="qcurve" smooth="yes"/>
      <point x="872" y="1103"/>
      <point x="787" y="1022"/>
      <point x="727" y="1022" type="qcurve" smooth="yes"/>
      <point x="671" y="1022"/>
      <point x="585" y="1121"/>
      <point x="585" y="1201" type="qcurve" smooth="yes"/>
      <point x="585" y="1300"/>
      <point x="756" y="1496"/>
      <point x="854" y="1555" type="qcurve"/>
    </contour>
  </outline>
</glyph>
<glyph name="kip" format="2">
  <advance width="1231"/>
  <unicode hex="20AD"/>
  <outline>
    <contour>
      <point x="1152" y="755" type="line"/>
      <point x="653" y="755" type="line"/>
      <point x="633" y="781" type="line"/>
      <point x="454" y="781" type="line"/>
      <point x="523" y="843" type="line"/>
      <point x="553" y="843" type="line"/>
      <point x="595" y="892" type="line"/>
      <point x="1175" y="892" type="line"/>
    </contour>
    <contour>
      <point x="85" y="755" type="line"/>
      <point x="96" y="891" type="line"/>
      <point x="377" y="891" type="line"/>
      <point x="367" y="843" type="line"/>
      <point x="523" y="843" type="line"/>
      <point x="454" y="781" type="line"/>
      <point x="362" y="781" type="line"/>
      <point x="357" y="755" type="line"/>
    </contour>
    <contour>
      <point x="-66" y="0" type="line"/>
      <point x="-57" y="100" type="line"/>
      <point x="139" y="125" type="line"/>
      <point x="262" y="754" type="line"/>
      <point x="376" y="1362" type="line"/>
      <point x="183" y="1386" type="line"/>
      <point x="196" y="1500" type="line"/>
      <point x="738" y="1500" type="line"/>
      <point x="725" y="1386" type="line"/>
      <point x="543" y="1362" type="line"/>
      <point x="422" y="754" type="line"/>
      <point x="311" y="125" type="line"/>
      <point x="495" y="100" type="line"/>
      <point x="486" y="0" type="line"/>
    </contour>
    <contour>
      <point x="313" y="604" type="line"/>
      <point x="343" y="757" type="line"/>
      <point x="965" y="1348" type="line"/>
      <point x="861" y="1386" type="line"/>
      <point x="874" y="1500" type="line"/>
      <point x="1294" y="1500" type="line"/>
      <point x="1281" y="1386" type="line"/>
      <point x="1120" y="1348" type="line"/>
    </contour>
    <contour>
      <point x="462" y="803" type="line"/>
      <point x="588" y="916" type="line"/>
      <point x="1087" y="125" type="line"/>
      <point x="1221" y="100" type="line"/>
      <point x="1212" y="0" type="line"/>
      <point x="743" y="0" type="line"/>
      <point x="752" y="100" type="line"/>
      <point x="893" y="125" type="line"/>
    </contour>
  </outline>
</glyph>
<glyph name="tenge" format="2">
  <advance width="1148"/>
  <unicode hex="20B8"/>
  <outline>
    <contour>
      <point x="141" y="1364" type="line"/>
      <point x="192" y="1500" type="line"/>
      <point x="1230" y="1500" type="line"/>
      <point x="1233" y="1364" type="line"/>
    </contour>
    <contour>
      <point x="25" y="779" type="line"/>
      <point x="108" y="1180" type="line"/>
      <point x="1205" y="1180" type="line"/>
      <point x="1122" y="779" type="line"/>
      <point x="1022" y="779" type="line"/>
      <point x="1050" y="1062" type="line"/>
      <point x="732" y="1062" type="line"/>
      <point x="718" y="1042" type="line"/>
      <point x="617" y="554" type="line"/>
      <point x="533" y="125" type="line"/>
      <point x="725" y="100" type="line"/>
      <point x="717" y="0" type="line"/>
      <point x="158" y="0" type="line"/>
      <point x="166" y="100" type="line"/>
      <point x="366" y="125" type="line"/>
      <point x="457" y="554" type="line"/>
      <point x="555" y="1042" type="line"/>
      <point x="551" y="1062" type="line"/>
      <point x="217" y="1062" type="line"/>
      <point x="125" y="779" type="line"/>
    </contour>
  </outline>
</glyph>
<glyph name="De.bgr" format="2">
  <advance width="1333"/>
  <outline>
    <contour>
      <point x="-38" y="54" type="line"/>
      <point x="381" y="704" type="line"/>
      <point x="906" y="1531" type="line"/>
      <point x="1026" y="1513" type="line"/>
      <point x="1080" y="666" type="line"/>
      <point x="1124" y="54" type="line"/>
      <point x="953" y="54" type="line"/>
      <point x="923" y="655" type="line"/>
      <point x="887" y="1249" type="line"/>
      <point x="858" y="1260" type="line"/>
      <point x="476" y="655" type="line"/>
      <point x="102" y="54" type="line"/>
    </contour>
    <contour>
      <point x="1114" y="-338" type="line"/>
      <point x="1110" y="0" type="line"/>
      <point x="-14" y="0" type="line"/>
      <point x="-148" y="-338" type="line"/>
      <point x="-250" y="-338" type="line"/>
      <point x="-154" y="108" type="line"/>
      <point x="1292" y="108" type="line"/>
      <point x="1216" y="-338" type="line"/>
    </contour>
  </outline>
</glyph>
<glyph name="hornU" format="2">
  <advance width="1225"/>
  <anchor x="1234" y="1500" name="topright"/>
  <anchor x="762" y="1500" name="top"/>
  <outline>
    <contour>
      <point x="33" y="1386" type="line"/>
      <point x="47" y="1500" type="line"/>
      <point x="588" y="1500" type="line"/>
      <point x="574" y="1386" type="line"/>
      <point x="399" y="1362" type="line"/>
      <point x="281" y="794" type="line" smooth="yes"/>
      <point x="262" y="702"/>
      <point x="226" y="454"/>
      <point x="226" y="374" type="qcurve" smooth="yes"/>
      <point x="226" y="268"/>
      <point x="374" y="104"/>
      <point x="502" y="104" type="qcurve" smooth="yes"/>
      <point x="669" y="104"/>
      <point x="879" y="277"/>
      <point x="922" y="494" type="qcurve" smooth="yes"/>
      <point x="981" y="794" type="line"/>
      <point x="1079" y="1362" type="line"/>
      <point x="887" y="1386" type="line"/>
      <point x="901" y="1500" type="line"/>
      <point x="1241" y="1500" type="line"/>
      <point x="1105" y="794" type="line"/>
      <point x="1050" y="493" type="line" smooth="yes"/>
      <point x="998" y="209"/>
      <point x="710" y="-22"/>
      <point x="483" y="-22" type="qcurve" smooth="yes"/>
      <point x="284" y="-22"/>
      <point x="48" y="178"/>
      <point x="51" y="364" type="qcurve" smooth="yes"/>
      <point x="52" y="444"/>
      <point x="85" y="615"/>
      <point x="119" y="794" type="qcurve" smooth="yes"/>
      <point x="226" y="1362" type="line"/>
    </contour>
  </outline>
</glyph>
<glyph name="ringcomb-stack.case" format="2">
  <anchor x="195" y="1500" name="_top"/>
  <anchor x="303" y="2056" name="top"/>
  <outline>
    <contour>
      <point x="27" y="1848" type="qcurve" smooth="yes"/>
      <point x="27" y="1939"/>
      <point x="149" y="2056"/>
      <point x="244" y="2056" type="qcurve" smooth="yes"/>
      <point x="339" y="2056"/>
      <point x="461" y="1939"/>
      <point x="461" y="1848" type="qcurve" smooth="yes"/>
      <point x="461" y="1757"/>
      <point x="339" y="1640"/>
      <point x="244" y="1640" type="qcurve" smooth="yes"/>
      <point x="149" y="1640"/>
      <point x="27" y="1757"/>
    </contour>
    <contour>
      <point x="141" y="1848" type="qcurve" smooth="yes"/>
      <point x="141" y="1802"/>
      <point x="197" y="1745"/>
      <point x="244" y="1745" type="qcurve" smooth="yes"/>
      <point x="294" y="1745"/>
      <point x="347" y="1798"/>
      <point x="347" y="1848" type="qcurve" smooth="yes"/>
      <point x="347" y="1894"/>
      <point x="291" y="1951"/>
      <point x="244" y="1951" type="qcurve" smooth="yes"/>
      <point x="194" y="1951"/>
      <point x="141" y="1898"/>
    </contour>
  </outline>
</glyph>
<glyph name="ze.bgr" format="2">
  <advance width="633"/>
  <outline>
    <contour>
      <point x="533" y="2" type="qcurve" smooth="yes"/>
      <point x="483" y="-210"/>
      <point x="132" y="-464"/>
      <point x="-42" y="-464" type="qcurve"/>
      <point x="-210" y="-424" type="line"/>
      <point x="-208" y="-348" type="line"/>
      <point x="-24" y="-337" type="line" smooth="yes"/>
      <point x="112" y="-329"/>
      <point x="343" y="-131"/>
      <point x="377" y="27" type="qcurve" smooth="yes"/>
      <point x="409" y="177"/>
      <point x="313" y="318"/>
      <point x="160" y="306" type="qcurve" smooth="yes"/>
      <point x="48" y="297" type="line"/>
      <point x="71" y="406" type="line"/>
      <point x="171" y="412" type="line" smooth="yes"/>
      <point x="298.7075333899" y="419.6624520034"/>
      <point x="428.0116781804" y="556.0614641076"/>
      <point x="447" y="656" type="qcurve" smooth="yes"/>
      <point x="464.98345606500004" y="761.902574605"/>
      <point x="385.1333333333" y="881"/>
      <point x="302" y="881" type="qcurve" smooth="yes"/>
      <point x="204.8172757475" y="881"/>
      <point x="66" y="799"/>
      <point x="18" y="732" type="qcurve"/>
      <point x="-40" y="796" type="line"/>
      <point x="-40" y="825" type="line"/>
      <point x="17.1368887167" y="904.7946204491"/>
      <point x="199.0180878553" y="1018"/>
      <point x="330" y="1018" type="qcurve" smooth="yes"/>
      <point x="485.275862069" y="1018"/>
      <point x="640.9870341283" y="816.9251968938"/>
      <point x="615" y="667" type="qcurve" smooth="yes"/>
      <point x="594.0117880605" y="546.0679216817"/>
      <point x="467.098138778" y="405.4312190738"/>
      <point x="362" y="374" type="qcurve"/>
      <point x="361" y="370" type="line"/>
      <point x="461.2877955291" y="352.3021537302"/>
      <point x="573.7526487335" y="172.9623312721"/>
    </contour>
  </outline>
</glyph>
